<?xml version="1.0" encoding="UTF-8" standalone="no"?>
<svg width="40px" height="20px" viewBox="0 0 40 20" version="1.1" xmlns="http://www.w3.org/2000/svg" xmlns:xlink="http://www.w3.org/1999/xlink">
    <!-- Generator: Sketch 40 (33762) - http://www.bohemiancoding.com/sketch -->
    <title>debris</title>
    <desc>Created with Sketch.</desc>
    <defs></defs>
    <g id="Main" stroke="none" stroke-width="1" fill="none" fill-rule="evenodd">
        <g id="debris" fill="#000000">
            <rect id="Rectangle-2" x="28" y="7" width="2" height="2"></rect>
            <rect id="Rectangle-2" x="31" y="16" width="2" height="2"></rect>
            <rect id="Rectangle-2" x="7" y="4" width="2" height="2"></rect>
            <rect id="Rectangle-2" x="17" y="0" width="2" height="2"></rect>
            <rect id="Rectangle-2" x="23" y="3" width="1" height="1"></rect>
            <rect id="Rectangle-2" x="5" y="17" width="1" height="1"></rect>
            <rect id="Rectangle-2" x="36" y="10" width="1" height="1"></rect>
            <rect id="Rectangle-2" x="35" y="15" width="1" height="1"></rect>
            <rect id="Rectangle-2" x="33" y="7" width="1" height="1"></rect>
            <rect id="Rectangle-2-Copy" x="20" y="6" width="1" height="1"></rect>
            <rect id="Rectangle-2-Copy-2" x="31" y="0" width="1" height="1"></rect>
            <rect id="Rectangle-2-Copy-3" x="7" y="0" width="1" height="1"></rect>
            <rect id="Rectangle-2-Copy-4" x="4" y="14" width="1" height="1"></rect>
            <rect id="Rectangle-2-Copy-5" x="13" y="9" width="1" height="1"></rect>
            <rect id="Rectangle-2-Copy-6" x="17" y="11" width="1" height="1"></rect>
            <rect id="Rectangle-2-Copy-7" x="12" y="11" width="1" height="1"></rect>
            <rect id="Rectangle-2-Copy-8" x="23" y="12" width="1" height="1"></rect>
            <rect id="Rectangle-2-Copy-9" x="25" y="6" width="1" height="1"></rect>
            <rect id="Rectangle-2-Copy-10" x="30" y="8" width="1" height="1"></rect>
            <rect id="Rectangle-2-Copy-11" x="29" y="10" width="1" height="1"></rect>
            <rect id="Rectangle-2-Copy-12" x="26" y="9" width="1" height="1"></rect>
            <rect id="Rectangle-2-Copy-13" x="28" y="15" width="1" height="1"></rect>
            <rect id="Rectangle-2-Copy-14" x="30" y="14" width="1" height="1"></rect>
            <rect id="Rectangle-2-Copy-15" x="32" y="12" width="1" height="1"></rect>
            <rect id="Rectangle-2-Copy-16" x="19" y="5" width="1" height="1"></rect>
            <rect id="Rectangle-2-Copy-17" x="13" y="15" width="1" height="1"></rect>
            <rect id="Rectangle-2-Copy-18" x="13" y="17" width="1" height="1"></rect>
            <rect id="Rectangle-2-Copy-19" x="8" y="17" width="1" height="1"></rect>
            <rect id="Rectangle-2-Copy-20" x="22" y="5" width="1" height="1"></rect>
            <rect id="Rectangle-2-Copy-21" x="39" y="11" width="1" height="1"></rect>
            <rect id="Rectangle-2-Copy-22" x="36" y="13" width="1" height="1"></rect>
            <rect id="Rectangle-2-Copy-23" x="0" y="13" width="1" height="1"></rect>
            <rect id="Rectangle-2-Copy-24" x="2" y="6" width="1" height="1"></rect>
            <rect id="Rectangle-2" x="18" y="12" width="2" height="2"></rect>
            <rect id="Rectangle-2" x="20" y="11" width="2" height="2"></rect>
            <rect id="Rectangle-2" x="16" y="7" width="2" height="2"></rect>
            <rect id="Rectangle-2" x="16" y="7" width="2" height="2"></rect>
            <rect id="Rectangle-2" x="17" y="15" width="3" height="3"></rect>
            <rect id="Rectangle-2" x="30" y="3" width="2" height="2"></rect>
            <rect id="Rectangle-2" x="14" y="10" width="3" height="3"></rect>
            <rect id="Rectangle-2" x="12" y="3" width="3" height="3"></rect>
            <rect id="Rectangle-2" x="9" y="13" width="3" height="3"></rect>
            <rect id="Rectangle" x="19" y="8" width="5" height="3"></rect>
            <rect id="Rectangle" x="25" y="10" width="3" height="5"></rect>
            <rect id="Rectangle" x="29" y="11" width="3" height="3"></rect>
            <rect id="Rectangle" x="8" y="9" width="2" height="2"></rect>
            <rect id="Rectangle" x="21" y="14" width="4" height="4"></rect>
            <rect id="Rectangle" x="6" y="12" width="2" height="3"></rect>
            <rect id="Rectangle" x="2" y="10" width="3" height="1"></rect>
            <rect id="Rectangle" x="9" y="16" width="10" height="1"></rect>
            <rect id="Rectangle" x="15" y="12" width="1" height="3"></rect>
            <rect id="Rectangle" x="27" y="17" width="1" height="3"></rect>
            <rect id="Rectangle" x="3" y="9" width="1" height="3"></rect>
            <rect id="Rectangle" x="7" y="7" width="8" height="1"></rect>
            <rect id="Rectangle" x="19" y="7" width="8" height="1"></rect>
        </g>
    </g>
</svg>