<?xml version="1.0" encoding="UTF-8" standalone="no"?>
<svg width="25px" height="13px" viewBox="0 0 25 13" version="1.1" xmlns="http://www.w3.org/2000/svg" xmlns:xlink="http://www.w3.org/1999/xlink">
    <!-- Generator: Sketch 40 (33762) - http://www.bohemiancoding.com/sketch -->
    <title>helicopter</title>
    <desc>Created with Sketch.</desc>
    <defs></defs>
    <g id="Page-1" stroke="none" stroke-width="1" fill="none" fill-rule="evenodd">
        <g id="helicopter" fill="#000000">
            <path d="M24.884,10.7532075 C24.72775,10.608 24.482,10.608 24.32425,10.7532075 L22.9425,12.1363585 L19.2265,12.1363585 L19.2265,10.4755472 L22.3825,10.4755472 C22.6835,10.4755472 22.9815,10.4500377 23.26625,10.3975472 C23.55425,10.3413774 23.795,10.1964151 23.98725,9.95211321 C24.15325,9.76201887 24.238,9.49711321 24.238,9.14071698 C24.238,8.8949434 24.163,8.5915283 24.028,8.2130566 L22.83325,5.41854717 C22.4525,4.55956604 21.9495,3.95886792 21.328,3.62356604 C20.711,3.28041509 20.0585,3.11754717 19.37175,3.11754717 L14.5895,3.11754717 L14.5895,0.892584906 L15.98925,0.892584906 C16.07225,1.0299434 16.17325,1.11603774 16.28225,1.15430189 C16.38825,1.1974717 16.48425,1.21513208 16.56725,1.21513208 L23.29225,1.21513208 C23.5105,1.21513208 23.673,1.15430189 23.78225,1.03460377 C23.8915,0.91490566 23.96125,0.772886792 23.98725,0.610018868 C23.98725,0.472660377 23.93525,0.338490566 23.826,0.206037736 C23.71225,0.0686792453 23.5365,0 23.29225,0 L16.81625,0 C16.5135,0 16.31825,0.0382641509 16.2205,0.102283019 C16.1245,0.172679245 16.0465,0.257056604 15.98925,0.36890566 L12.15625,0.36890566 C12.10425,0.312981132 12.04225,0.244301887 11.9725,0.162867925 C11.90725,0.0814339623 11.7755,0.0431698113 11.5835,0.0431698113 L4.7785,0.0431698113 C4.6695,0.0431698113 4.5425,0.0892830189 4.38475,0.185188679 C4.2365,0.282566038 4.16175,0.434396226 4.16175,0.653188679 C4.16175,0.862415094 4.2365,1.0299434 4.38475,1.13369811 C4.5425,1.24554717 4.66125,1.29656604 4.7395,1.29656604 L11.5835,1.29656604 C11.6355,1.29656604 11.7235,1.27424528 11.8505,1.23573585 C11.9725,1.1974717 12.0735,1.09518868 12.1565,0.930849057 L13.6,0.930849057 L13.6,3.1170566 L4.9885,3.1170566 C4.7965,2.65715094 4.4855,2.27058491 4.06075,1.96250943 C3.63275,1.65271698 3.146,1.49769811 2.596,1.49769811 C1.8815,1.49769811 1.27425,1.74690566 0.76175,2.24507547 C0.25075,2.74349057 0,3.34369811 0,4.04790566 C0,4.74745283 0.25075,5.33981132 0.76175,5.82522642 C1.2745,6.31554717 1.8815,6.5549434 2.596,6.5549434 C3.418,6.5549434 4.0655,6.25937736 4.5295,5.66235849 L10.13825,7.72690566 L10.87875,9.54249057 C10.98775,9.76128302 11.13275,9.96707547 11.3115,10.1748302 C11.4905,10.3759623 11.8715,10.4750566 12.44925,10.4750566 L14.94275,10.4750566 L14.94275,12.1358679 L10.87875,12.1358679 C10.659,12.1358679 10.48,12.3083019 10.48,12.5221887 C10.48,12.7360755 10.659,12.9085094 10.87875,12.9085094 L23.1295,12.9085094 C23.253,12.9085094 23.354,12.8447358 23.419,12.7537358 L24.88375,11.3036226 C25.0385,11.1525283 25.0385,10.9082264 24.884,10.7532075 L24.884,10.7532075 Z M20.32025,4.25075472 C20.675,4.35303774 20.986,4.5254717 21.24475,4.75211321 C21.50675,4.98366038 21.74775,5.33981132 21.9705,5.82522642 C22.0225,5.98809434 22.0925,6.16543396 22.1755,6.35381132 C22.25525,6.5375283 22.33825,6.74037736 22.42125,6.95916981 L20.32,6.95916981 L20.32,4.25075472 L20.32025,4.25075472 Z M2.1225,4.69618868 C2.32425,4.82888679 2.53925,4.93730189 2.76225,5.01407547 L3.589,5.33981132 C3.283,5.55541509 2.94925,5.66235849 2.59625,5.66235849 C2.1275,5.66235849 1.72875,5.50733962 1.39675,5.19926415 C1.068,4.8894717 0.907,4.50781132 0.907,4.04790566 C0.907,3.58481132 1.06825,3.20315094 1.39675,2.89335849 C1.72875,2.58356604 2.1275,2.43026415 2.59625,2.43026415 C3.17225,2.43026415 3.62325,2.65715094 3.95675,3.1170566 L2.80125,3.1170566 C2.5295,3.1170566 2.2935,3.19358491 2.10125,3.36135849 C1.90925,3.51956604 1.8165,3.74767925 1.8165,4.04790566 C1.8165,4.3449434 1.91725,4.55907547 2.1225,4.69618868 L2.1225,4.69618868 Z M17.433,4.12933962 L19.2885,4.12933962 L19.2885,6.92066038 L17.433,6.92066038 L17.433,4.12933962 L17.433,4.12933962 Z M14.5895,4.16784906 L16.40425,4.16784906 L16.40425,6.95916981 L14.5895,6.95916981 L14.5895,4.16784906 L14.5895,4.16784906 Z M15.5955,10.4753019 L18.57075,10.4753019 L18.57075,12.1361132 L15.5955,12.1361132 L15.5955,10.4753019 L15.5955,10.4753019 Z" id="Shape"></path>
        </g>
    </g>
</svg>