<?xml version="1.0" encoding="UTF-8" standalone="no"?>
<svg width="28px" height="15px" viewBox="0 0 28 15" version="1.1" xmlns="http://www.w3.org/2000/svg" xmlns:xlink="http://www.w3.org/1999/xlink">
    <!-- Generator: Sketch 40 (33762) - http://www.bohemiancoding.com/sketch -->
    <title>helicopter</title>
    <desc>Created with Sketch.</desc>
    <defs>
        <rect id="path-1" x="3" y="1" width="17" height="3"></rect>
        <mask id="mask-2" maskContentUnits="userSpaceOnUse" maskUnits="objectBoundingBox" x="0" y="0" width="17" height="3" fill="white">
            <use xlink:href="#path-1"></use>
        </mask>
        <rect id="path-3" x="3" y="1" width="17" height="3"></rect>
        <mask id="mask-4" maskContentUnits="userSpaceOnUse" maskUnits="objectBoundingBox" x="0" y="0" width="17" height="3" fill="white">
            <use xlink:href="#path-3"></use>
        </mask>
    </defs>
    <g id="Main" stroke="none" stroke-width="1" fill="none" fill-rule="evenodd">
        <g id="helicopter">
            <g id="none" fill="#000000">
                <g id="helicopter" transform="translate(1.000000, 1.000000)">
                    <rect id="Rectangle" x="11" y="4" width="14" height="7"></rect>
                    <rect id="Rectangle" x="19" y="3" width="5" height="9"></rect>
                    <rect id="Rectangle" x="23" y="5" width="3" height="5"></rect>
                    <rect id="Rectangle" x="24" y="6" width="3" height="3"></rect>
                    <rect id="Rectangle" x="8" y="6" width="4" height="3"></rect>
                    <rect id="Rectangle" x="16" y="10" width="4" height="4"></rect>
                    <rect id="Rectangle" x="3" y="4" width="12" height="3"></rect>
                    <rect id="Rectangle" x="0" y="5" width="12" height="1"></rect>
                    <rect id="Rectangle" x="11" y="13" width="14" height="1"></rect>
                    <rect id="Rectangle" x="15" y="0" width="1" height="5"></rect>
                    <rect id="Rectangle" x="1" y="4" width="1" height="3"></rect>
                    <rect id="Rectangle" x="5" y="1" width="21" height="1"></rect>
                </g>
            </g>
            <g id="all">
                <g id="Tail-Roter-On" transform="translate(0.000000, 4.000000)" fill="#979797">
                    <rect id="Rectangle" x="1" y="1" width="3" height="3"></rect>
                    <rect id="Rectangle" transform="translate(2.500000, 2.500000) rotate(-90.000000) translate(-2.500000, -2.500000) " x="2" y="0" width="1" height="5"></rect>
                    <rect id="Rectangle" x="2" y="0" width="1" height="5"></rect>
                </g>
                <g id="Main-Rotor-On" transform="translate(5.000000, 0.000000)">
                    <g id="Group">
                        <use id="Rectangle" stroke="#979797" mask="url(#mask-2)" stroke-width="2" fill="#D8D8D8" xlink:href="#path-1"></use>
                        <rect id="Rectangle" fill="#979797" x="8" y="0" width="6" height="5"></rect>
                        <rect id="Rectangle" fill="#979797" x="0" y="2" width="23" height="1"></rect>
                    </g>
                </g>
                <g id="helicopter" transform="translate(1.000000, 1.000000)" fill="#000000">
                    <rect id="Rectangle" x="11" y="4" width="14" height="7"></rect>
                    <rect id="Rectangle" x="19" y="3" width="5" height="9"></rect>
                    <rect id="Rectangle" x="23" y="5" width="3" height="5"></rect>
                    <rect id="Rectangle" x="24" y="6" width="3" height="3"></rect>
                    <rect id="Rectangle" x="8" y="6" width="4" height="3"></rect>
                    <rect id="Rectangle" x="16" y="10" width="4" height="4"></rect>
                    <rect id="Rectangle" x="3" y="4" width="12" height="3"></rect>
                    <rect id="Rectangle" x="0" y="5" width="12" height="1"></rect>
                    <rect id="Rectangle" x="11" y="13" width="14" height="1"></rect>
                    <rect id="Rectangle" x="15" y="0" width="1" height="5"></rect>
                    <rect id="Rectangle" x="1" y="4" width="1" height="3"></rect>
                    <rect id="Rectangle" x="5" y="1" width="21" height="1"></rect>
                </g>
            </g>
            <g id="turn">
                <g id="Tail-Roter-On" transform="translate(0.000000, 4.000000)" fill="#979797">
                    <rect id="Rectangle" x="1" y="1" width="3" height="3"></rect>
                    <rect id="Rectangle" transform="translate(2.500000, 2.500000) rotate(-90.000000) translate(-2.500000, -2.500000) " x="2" y="0" width="1" height="5"></rect>
                    <rect id="Rectangle" x="2" y="0" width="1" height="5"></rect>
                </g>
                <g id="helicopter" transform="translate(1.000000, 1.000000)" fill="#000000">
                    <rect id="Rectangle" x="11" y="4" width="14" height="7"></rect>
                    <rect id="Rectangle" x="19" y="3" width="5" height="9"></rect>
                    <rect id="Rectangle" x="23" y="5" width="3" height="5"></rect>
                    <rect id="Rectangle" x="24" y="6" width="3" height="3"></rect>
                    <rect id="Rectangle" x="8" y="6" width="4" height="3"></rect>
                    <rect id="Rectangle" x="16" y="10" width="4" height="4"></rect>
                    <rect id="Rectangle" x="3" y="4" width="12" height="3"></rect>
                    <rect id="Rectangle" x="0" y="5" width="12" height="1"></rect>
                    <rect id="Rectangle" x="11" y="13" width="14" height="1"></rect>
                    <rect id="Rectangle" x="15" y="0" width="1" height="5"></rect>
                    <rect id="Rectangle" x="1" y="4" width="1" height="3"></rect>
                    <rect id="Rectangle" x="5" y="1" width="21" height="1"></rect>
                </g>
            </g>
            <g id="main">
                <g id="Main-Rotor-On" transform="translate(5.000000, 0.000000)">
                    <g id="Group">
                        <use id="Rectangle" stroke="#979797" mask="url(#mask-4)" stroke-width="2" fill="#D8D8D8" xlink:href="#path-3"></use>
                        <rect id="Rectangle" fill="#979797" x="8" y="0" width="6" height="5"></rect>
                        <rect id="Rectangle" fill="#979797" x="0" y="2" width="23" height="1"></rect>
                    </g>
                </g>
                <g id="helicopter" transform="translate(1.000000, 1.000000)" fill="#000000">
                    <rect id="Rectangle" x="11" y="4" width="14" height="7"></rect>
                    <rect id="Rectangle" x="19" y="3" width="5" height="9"></rect>
                    <rect id="Rectangle" x="23" y="5" width="3" height="5"></rect>
                    <rect id="Rectangle" x="24" y="6" width="3" height="3"></rect>
                    <rect id="Rectangle" x="8" y="6" width="4" height="3"></rect>
                    <rect id="Rectangle" x="16" y="10" width="4" height="4"></rect>
                    <rect id="Rectangle" x="3" y="4" width="12" height="3"></rect>
                    <rect id="Rectangle" x="0" y="5" width="12" height="1"></rect>
                    <rect id="Rectangle" x="11" y="13" width="14" height="1"></rect>
                    <rect id="Rectangle" x="15" y="0" width="1" height="5"></rect>
                    <rect id="Rectangle" x="1" y="4" width="1" height="3"></rect>
                    <rect id="Rectangle" x="5" y="1" width="21" height="1"></rect>
                </g>
            </g>
        </g>
    </g>
</svg>